<?xml version="1.0" encoding="UTF-8"?>
<!DOCTYPE svg PUBLIC "-//W3C//DTD SVG 1.1//EN" "http://www.w3.org/Graphics/SVG/1.1/DTD/svg11.dtd">
<svg id="Lager_1" style="enable-background:new -265 388.9 64 64;" version="1.1" viewBox="-265 388.9 64 64" xml:space="preserve" xmlns="http://www.w3.org/2000/svg" xmlns:xlink="http://www.w3.org/1999/xlink"><path d="M-224.7,420.9l7.3-7.3c0.6-0.6,0.6-1.5,0-2.1l-6.2-6.2c-0.6-0.6-1.5-0.6-2.1,0l-7.3,7.3l-7.3-7.3c-0.6-0.6-1.5-0.6-2.1,0  l-6.2,6.2c-0.6,0.6-0.6,1.5,0,2.1l7.3,7.3l-7.3,7.3c-0.6,0.6-0.6,1.5,0,2.1l6.2,6.2c0.6,0.6,1.5,0.6,2.1,0l7.3-7.3l7.3,7.3  c0.6,0.6,1.5,0.6,2.1,0l6.2-6.2c0.6-0.6,0.6-1.5,0-2.1L-224.7,420.9z"/></svg>