<svg height="512pt" viewBox="-15 0 512 512.00103" width="512pt" xmlns="http://www.w3.org/2000/svg"><path d="m135.59375 256.613281h-102.667969c13.09375 35.820313 29.601563 74.785157 48.523438 106.175781 29.230469 48.488282 66.398437 86.667969 85.953125 105.113282 14.339844 13.527344 28.289062 25.058594 40.332031 33.347656 7.578125 5.214844 13.597656 8.582031 18.4375 10.75v-164.808594c-46.738281-6.777344-83.800781-43.839844-90.578125-90.578125zm0 0"/><path d="m257.058594 347.191406v164.46875c4.707031-2.175781 10.5-5.464844 17.6875-10.414062 12.042968-8.289063 25.988281-19.820313 40.332031-33.347656 19.554687-18.441407 56.722656-56.625 85.953125-105.109376 18.925781-31.390624 35.429688-70.355468 48.519531-106.175781h-101.914062c-6.777344 46.738281-43.839844 83.800781-90.578125 90.578125zm0 0"/><path d="m225.804688 135.199219v-135.199219h-91.527344c-7.339844 0-13.664063 5.164062-15.132813 12.351562-.128906.644532-14.28125 65.050782-111.640625 123.40625-5.847656 3.503907-8.703125 10.429688-7.03125 17.039063.652344 2.566406 8.472656 33.140625 21.695313 72.929687h113.425781c6.757812-46.617187 43.644531-83.609374 90.210938-90.527343zm0 0"/><path d="m347.636719 225.726562h112.675781c13.222656-39.785156 21.042969-70.363281 21.691406-72.929687 1.675782-6.609375-1.179687-13.535156-7.027344-17.039063-50.441406-30.230468-78.128906-62.253906-92.46875-83.796874-15.035156-22.574219-18.949218-38.652344-19.183593-39.667969-1.40625-7.253907-7.722657-12.292969-15.121094-12.292969h-91.511719v135.097656c46.914063 6.636719 84.148438 43.765625 90.945313 90.628906zm0 0"/><path d="m241.617188 164.914062c-42.046876 0-76.253907 34.210938-76.253907 76.253907 0 42.046875 34.207031 76.253906 76.253907 76.253906 42.042968 0 76.25-34.207031 76.25-76.253906 0-42.042969-34.207032-76.253907-76.25-76.253907zm42.21875 69.660157-46.082032 46.082031c-2.902344 2.902344-6.832031 4.523438-10.917968 4.523438-.246094 0-.496094-.003907-.75-.019532-4.347657-.210937-8.40625-2.246094-11.175782-5.609375l-19.707031-23.953125c-5.417969-6.585937-4.472656-16.316406 2.113281-21.734375 6.585938-5.421875 16.316406-4.476562 21.734375 2.109375l8.898438 10.8125 34.050781-34.046875c6.03125-6.03125 15.808594-6.03125 21.835938 0 6.035156 6.027344 6.035156 15.804688 0 21.835938zm0 0"/></svg>